# xmcd
# 
# Track frame offsets:
#     150
#     54354
#     97816
#     121116
# 
# Disc length: 2736
# 
# Revision: 2
# Processed by: cddbd v1.5.2PL0 Copyright (c) Steve Scherf et al.
# Submitted via: fre:ac v1.0.17
# 
DISCID=230aae04
DTITLE=Isaac Hayes - Hot Buttered Soul
DYEAR=1969
DGENRE=Soul
TTITLE0=Walk On By
TTITLE1=Hyperbolicsyllabicsesquedalymistic
TTITLE2=One Woman
TTITLE3=By The Time I Get To Phoenix
EXTD=
EXTT0=
EXTT1=
EXTT2=
EXTT3=
PLAYORDER=
